<svg width="467" height="535" viewBox="0 0 467 535" fill="none" xmlns="http://www.w3.org/2000/svg">
<path d="M334.322 534.156C333.662 534.141 333.004 534.006 332.348 533.784L230.772 497.61L127.72 529.354C125.795 529.918 123.698 529.578 122.107 528.366C120.498 527.17 119.566 525.245 119.609 523.254L120.362 488.629C120.401 486.828 121.203 485.148 122.602 483.983L191.271 426.707L198.859 77.5642C199.393 52.9977 210.888 -0.619909 241.586 0.0472671C272.283 0.714443 281.438 54.7809 280.904 79.3474L278.961 168.784L317.914 200.098L318.702 163.845L331.234 164.118L330.237 209.996L369.19 241.31L370.097 199.604L382.629 199.876L381.514 251.208L464.565 317.966C466.086 319.177 466.95 321.031 466.908 322.953L465.215 400.86C465.167 403.076 463.941 405.093 461.987 406.176C460.015 407.276 457.669 407.208 455.745 406.092L276.184 299.72L273.316 428.507L339.431 488.713C340.762 489.92 341.507 491.651 341.467 493.451L340.715 528.076C340.672 530.067 339.657 531.951 338.015 533.075C336.903 533.813 335.608 534.184 334.322 534.156ZM231.05 484.799C231.728 484.814 232.386 484.949 233.025 485.171L328.387 519.166L328.891 496.001L262.775 435.795C261.445 434.588 260.7 432.857 260.739 431.057L263.919 288.75C263.967 286.534 265.194 284.516 267.147 283.433C269.118 282.367 271.465 282.401 273.389 283.534L452.932 389.906L454.326 325.745L268.722 176.564C267.201 175.353 266.337 173.498 266.379 171.576L268.389 79.0754C268.889 56.0497 260.054 12.9023 241.315 12.495C222.594 12.0881 211.875 54.8106 211.374 77.8363L203.724 429.818C203.685 431.618 202.884 433.298 201.484 434.463L132.816 491.74L132.312 514.904L229.062 485.085C229.71 484.874 230.372 484.784 231.05 484.799ZM6.87574 397.134C5.79803 397.11 4.70932 396.792 3.76532 396.217C1.85994 395.067 0.705324 392.981 0.753863 390.748L2.44669 312.859C2.48884 310.92 3.43261 309.104 5.00524 307.96L90.8671 245.376L91.9933 193.56L104.509 193.832L103.59 236.092L143.879 206.725L144.893 160.068L157.409 160.34L156.328 210.079C156.286 212.018 155.342 213.833 153.769 214.977L14.8951 316.212L13.5033 380.251L162.397 298.893L168.421 309.815L10.023 396.353C9.05458 396.904 7.95346 397.157 6.87574 397.134Z" fill="#FAF9F9"/>
</svg>
