<svg width="11" height="14" viewBox="0 0 11 14" fill="none" xmlns="http://www.w3.org/2000/svg">
<path d="M9.53472 5.23546C9.49942 7.04837 6.93301 11.9323 6.08918 13.4908C6.06245 13.5403 6.02439 13.5809 5.97885 13.6087C5.93331 13.6364 5.88194 13.6502 5.82992 13.6488C5.77791 13.6473 5.72711 13.6305 5.6827 13.6003C5.6383 13.57 5.60186 13.5272 5.57709 13.4763C4.79483 11.8716 2.4213 6.84747 2.45659 5.03456C2.46664 4.51856 2.56812 4.01021 2.75526 3.53854C2.94239 3.06687 3.2115 2.64111 3.54724 2.28557C3.88297 1.93003 4.27875 1.65168 4.71198 1.4664C5.1452 1.28112 5.60739 1.19256 6.07214 1.20575C6.5369 1.21894 6.99512 1.33363 7.42066 1.54328C7.84619 1.75293 8.2307 2.05343 8.55223 2.42763C8.87376 2.80182 9.12602 3.24237 9.29459 3.72414C9.46317 4.2059 9.54476 4.71946 9.53472 5.23546Z" fill="#2A4064"/>
<path d="M5.26931 7.10166C6.24936 7.55138 7.36904 7.03521 7.7702 5.94877C8.17135 4.86234 7.70207 3.61703 6.72202 3.16732C5.74197 2.7176 4.62228 3.23376 4.22112 4.3202C3.81997 5.40664 4.28926 6.65194 5.26931 7.10166Z" fill="white"/>
</svg>
