<svg width="340" height="110" viewBox="-20 20 340 110" fill="none" xmlns="http://www.w3.org/2000/svg">
<path d="M4.30398 54.9566H13.9773L26.9318 86.5759H27.4432L40.3977 54.9566H50.071V98.593H42.4858V68.6143H42.081L30.0213 98.4651H24.3537L12.294 68.5503H11.8892V98.593H4.30398V54.9566ZM58.3381 98.593V65.8657H66.0511V98.593H58.3381ZM62.2159 61.2208C60.9943 61.2208 59.9432 60.816 59.0625 60.0063C58.1818 59.1824 57.7415 58.1952 57.7415 57.0447C57.7415 55.8799 58.1818 54.8927 59.0625 54.083C59.9432 53.2591 60.9943 52.8472 62.2159 52.8472C63.4517 52.8472 64.5028 53.2591 65.3693 54.083C66.25 54.8927 66.6903 55.8799 66.6903 57.0447C66.6903 58.1952 66.25 59.1824 65.3693 60.0063C64.5028 60.816 63.4517 61.2208 62.2159 61.2208ZM90.3249 65.8657V71.8316H71.511V65.8657H90.3249ZM76.1559 58.0248H83.869V88.7492C83.869 89.7861 84.0252 90.5816 84.3377 91.1356C84.6644 91.6753 85.0906 92.0447 85.6161 92.2435C86.1417 92.4424 86.7241 92.5418 87.3633 92.5418C87.8462 92.5418 88.2866 92.5063 88.6843 92.4353C89.0962 92.3643 89.4087 92.3003 89.6218 92.2435L90.9215 98.2734C90.5096 98.4154 89.9201 98.5716 89.1531 98.7421C88.4002 98.9126 87.4769 99.012 86.3832 99.0404C84.4513 99.0972 82.7113 98.806 81.163 98.1668C79.6147 97.5134 78.386 96.5049 77.4769 95.1413C76.582 93.7776 76.1417 92.0731 76.1559 90.0276V58.0248ZM96.7756 98.593V65.8657H104.254V71.3202H104.595C105.192 69.431 106.214 67.9751 107.663 66.9523C109.126 65.9154 110.795 65.3969 112.67 65.3969C113.097 65.3969 113.572 65.4182 114.098 65.4609C114.638 65.4893 115.085 65.539 115.44 65.61V72.7052C115.114 72.5915 114.595 72.4921 113.885 72.4069C113.189 72.3074 112.514 72.2577 111.861 72.2577C110.455 72.2577 109.19 72.5631 108.068 73.1739C106.96 73.7705 106.087 74.6015 105.447 75.6668C104.808 76.7322 104.489 77.9609 104.489 79.3529V98.593H96.7756ZM133.706 99.2322C130.424 99.2322 127.591 98.5503 125.204 97.1867C122.832 95.8089 121.007 93.8628 119.728 91.3486C118.45 88.8202 117.811 85.8444 117.811 82.4211C117.811 79.0546 118.45 76.1001 119.728 73.5574C121.021 71.0006 122.825 69.012 125.14 67.5915C127.456 66.1569 130.176 65.4395 133.301 65.4395C135.318 65.4395 137.221 65.7663 139.011 66.4197C140.815 67.0589 142.406 68.0532 143.784 69.4026C145.176 70.752 146.27 72.4708 147.065 74.5589C147.86 76.6327 148.258 79.1043 148.258 81.9736V84.3387H121.433V79.1398H140.865C140.85 77.6626 140.531 76.3486 139.906 75.1981C139.281 74.0333 138.407 73.1171 137.285 72.4495C136.177 71.7819 134.885 71.4481 133.407 71.4481C131.831 71.4481 130.446 71.8316 129.252 72.5986C128.059 73.3515 127.129 74.3458 126.461 75.5816C125.808 76.8032 125.474 78.1455 125.46 79.6086V84.1469C125.46 86.0503 125.808 87.6839 126.504 89.0475C127.2 90.3969 128.173 91.4339 129.423 92.1583C130.673 92.8685 132.136 93.2236 133.812 93.2236C134.934 93.2236 135.95 93.0674 136.859 92.7549C137.768 92.4282 138.556 91.9523 139.224 91.3273C139.892 90.7023 140.396 89.9282 140.737 89.0049L147.939 89.8145C147.484 91.718 146.618 93.3799 145.339 94.8003C144.075 96.2066 142.456 97.3003 140.481 98.0816C138.507 98.8486 136.248 99.2322 133.706 99.2322ZM154.783 98.593V65.8657H162.496V98.593H154.783ZM158.661 61.2208C157.44 61.2208 156.388 60.816 155.508 60.0063C154.627 59.1824 154.187 58.1952 154.187 57.0447C154.187 55.8799 154.627 54.8927 155.508 54.083C156.388 53.2591 157.44 52.8472 158.661 52.8472C159.897 52.8472 160.948 53.2591 161.815 54.083C162.695 54.8927 163.136 55.8799 163.136 57.0447C163.136 58.1952 162.695 59.1824 161.815 60.0063C160.948 60.816 159.897 61.2208 158.661 61.2208ZM196.294 74.5163L189.263 75.2833C189.064 74.5731 188.716 73.9055 188.219 73.2805C187.736 72.6555 187.083 72.1512 186.259 71.7677C185.435 71.3841 184.426 71.1924 183.233 71.1924C181.628 71.1924 180.279 71.5404 179.185 72.2364C178.105 72.9324 177.573 73.8344 177.587 74.9424C177.573 75.8941 177.921 76.6682 178.631 77.2648C179.355 77.8614 180.549 78.3515 182.211 78.735L187.793 79.9282C190.89 80.5958 193.191 81.654 194.696 83.1029C196.216 84.5518 196.983 86.4481 196.998 88.7918C196.983 90.8515 196.38 92.6697 195.186 94.2464C194.007 95.8089 192.367 97.0305 190.265 97.9111C188.162 98.7918 185.748 99.2322 183.02 99.2322C179.015 99.2322 175.79 98.3941 173.347 96.718C170.904 95.0276 169.448 92.6768 168.979 89.6654L176.5 88.941C176.841 90.4182 177.566 91.5333 178.674 92.2861C179.782 93.039 181.223 93.4154 182.999 93.4154C184.831 93.4154 186.301 93.039 187.409 92.2861C188.532 91.5333 189.093 90.6029 189.093 89.4949C189.093 88.5574 188.73 87.7833 188.006 87.1725C187.296 86.5617 186.188 86.093 184.682 85.7663L179.1 84.5944C175.961 83.941 173.638 82.8401 172.132 81.2918C170.627 79.7293 169.881 77.7549 169.895 75.3685C169.881 73.3515 170.428 71.6043 171.536 70.127C172.658 68.6356 174.213 67.485 176.202 66.6753C178.205 65.8515 180.513 65.4395 183.127 65.4395C186.962 65.4395 189.98 66.2563 192.182 67.8898C194.398 69.5234 195.769 71.7322 196.294 74.5163ZM217.846 99.2322C214.565 99.2322 211.731 98.5503 209.345 97.1867C206.973 95.8089 205.147 93.8628 203.869 91.3486C202.591 88.8202 201.951 85.8444 201.951 82.4211C201.951 79.0546 202.591 76.1001 203.869 73.5574C205.162 71.0006 206.966 69.012 209.281 67.5915C211.596 66.1569 214.316 65.4395 217.441 65.4395C219.458 65.4395 221.362 65.7663 223.152 66.4197C224.956 67.0589 226.547 68.0532 227.924 69.4026C229.316 70.752 230.41 72.4708 231.206 74.5589C232.001 76.6327 232.399 79.1043 232.399 81.9736V84.3387H205.574V79.1398H225.005C224.991 77.6626 224.672 76.3486 224.047 75.1981C223.422 74.0333 222.548 73.1171 221.426 72.4495C220.318 71.7819 219.025 71.4481 217.548 71.4481C215.971 71.4481 214.586 71.8316 213.393 72.5986C212.2 73.3515 211.27 74.3458 210.602 75.5816C209.949 76.8032 209.615 78.1455 209.6 79.6086V84.1469C209.6 86.0503 209.949 87.6839 210.645 89.0475C211.341 90.3969 212.314 91.4339 213.564 92.1583C214.814 92.8685 216.277 93.2236 217.953 93.2236C219.075 93.2236 220.091 93.0674 221 92.7549C221.909 92.4282 222.697 91.9523 223.365 91.3273C224.032 90.7023 224.537 89.9282 224.877 89.0049L232.079 89.8145C231.625 91.718 230.758 93.3799 229.48 94.8003C228.216 96.2066 226.596 97.3003 224.622 98.0816C222.647 98.8486 220.389 99.2322 217.846 99.2322ZM246.637 79.4168V98.593H238.924V65.8657H246.296V71.4268H246.68C247.433 69.5944 248.633 68.1384 250.281 67.0589C251.942 65.9793 253.995 65.4395 256.438 65.4395C258.697 65.4395 260.664 65.9225 262.34 66.8884C264.031 67.8543 265.337 69.2535 266.261 71.0859C267.198 72.9182 267.66 75.1413 267.646 77.7549V98.593H259.933V78.9481C259.933 76.7606 259.364 75.0489 258.228 73.8131C257.106 72.5773 255.55 71.9594 253.562 71.9594C252.212 71.9594 251.012 72.2577 249.961 72.8543C248.924 73.4367 248.107 74.2819 247.511 75.3898C246.928 76.4978 246.637 77.8401 246.637 79.4168Z" fill="#FAF9F9"/>
<path d="M263.29 87.3617C263.256 87.3019 263.233 87.2359 263.218 87.1655L261.032 76.1652L252.703 68.6544C252.55 68.5125 252.468 68.3071 252.492 68.1004C252.513 67.893 252.635 67.7071 252.815 67.6048L255.948 65.8259C256.111 65.7334 256.303 65.7154 256.482 65.7782L265.259 68.8571L296.844 50.9193C299.067 49.6572 304.468 47.825 306.045 50.6022C307.622 53.3793 303.282 57.0796 301.06 58.3417L292.969 62.9367L292.249 68.0851L295.528 66.2226L296.172 67.3564L292.022 69.7134L291.302 74.8618L295.075 72.7191L295.719 73.8529L291.075 76.4902L289.541 87.4666C289.514 87.6671 289.395 87.8431 289.221 87.9419L282.173 91.9444C281.972 92.0583 281.727 92.0563 281.526 91.9396C281.323 91.8222 281.204 91.609 281.201 91.3777L281.127 69.67L269.472 76.2804L267.62 85.3951C267.584 85.5782 267.469 85.737 267.306 85.8295L264.173 87.6085C263.993 87.7107 263.771 87.7205 263.583 87.6339C263.458 87.5739 263.356 87.478 263.29 87.3617ZM262.191 75.507C262.226 75.5684 262.249 75.6344 262.263 75.7032L264.312 86.0324L266.407 84.8423L268.259 75.7276C268.296 75.5444 268.411 75.3856 268.574 75.2931L281.453 67.9896C281.653 67.8758 281.899 67.8777 282.1 67.9945C282.3 68.1137 282.422 68.3251 282.423 68.5572L282.496 90.2634L288.301 86.9671L291.728 62.4371C291.755 62.2367 291.874 62.0606 292.048 61.9619L300.417 57.2095C302.5 56.0265 305.882 52.9369 304.919 51.2417C303.957 49.5481 299.57 50.8686 297.487 52.0516L265.645 70.1352C265.482 70.2277 265.289 70.2456 265.11 70.1828L256.334 67.104L254.238 68.2941L262.06 75.3447C262.113 75.3913 262.157 75.4457 262.191 75.507ZM258.068 50.8123C258.013 50.7148 257.983 50.6006 257.984 50.4857C257.985 50.2542 258.11 50.0399 258.312 49.9251L265.358 45.9234C265.534 45.8238 265.746 45.8113 265.932 45.8908L276.1 50.2221L280.787 47.56L281.43 48.6922L277.607 50.8634L282.378 52.8958L286.599 50.4987L287.242 51.6309L282.742 54.1863C282.567 54.2859 282.354 54.2984 282.168 54.219L265.723 47.214L259.929 50.5041L275.134 59.4637L274.48 60.584L258.306 51.0518C258.205 50.9947 258.123 50.9098 258.068 50.8123Z" fill="#FAF9F9"/>
</svg>
