<svg width="35" height="35" viewBox="0 0 35 35" fill="none" xmlns="http://www.w3.org/2000/svg">
<path d="M9.23798 27.2659C9.22276 27.2404 9.21222 27.2122 9.20502 27.1819L8.15798 22.4514L4.48999 19.2856C4.42256 19.2258 4.38546 19.1378 4.39364 19.0483C4.40076 18.9586 4.45183 18.8771 4.52866 18.8312L5.86486 18.0335C5.93434 17.992 6.01743 17.9825 6.09517 18.0079L9.91466 19.2553L23.3882 11.2115C24.3363 10.6455 26.6519 9.8035 27.3592 10.9881C28.0664 12.1728 26.2265 13.8117 25.2785 14.3777L21.8271 16.4382L21.5645 18.6685L22.9635 17.8333L23.2523 18.317L21.4818 19.3739L21.2193 21.6043L22.8288 20.6434L23.1175 21.1271L21.1366 22.3097L20.5771 27.0648C20.5673 27.1517 20.5173 27.2288 20.4432 27.2731L17.4367 29.068C17.3512 29.119 17.2451 29.1205 17.1573 29.0719C17.0683 29.0231 17.0149 28.9322 17.0115 28.8323L16.7758 19.4574L11.8042 22.4219L11.09 26.3759C11.0758 26.4553 11.0277 26.525 10.9582 26.5665L9.622 27.3642C9.54517 27.4101 9.44925 27.4164 9.36725 27.3807C9.31262 27.356 9.26762 27.3156 9.23798 27.2659ZM8.65238 22.1562C8.668 22.1824 8.67854 22.2107 8.68534 22.2403L9.66704 26.6822L10.561 26.1485L11.2752 22.1945C11.2894 22.1151 11.3375 22.0454 11.407 22.0039L16.9008 18.7286C16.9863 18.6776 17.0923 18.6761 17.1802 18.7247C17.2678 18.7743 17.3226 18.8644 17.3253 18.9647L17.5606 28.3389L20.0366 26.8607L21.2865 16.2341C21.2963 16.1472 21.3463 16.0701 21.4205 16.0258L24.9901 13.8947C25.8787 13.3642 27.3105 11.998 26.8788 11.2749C26.4475 10.5525 24.5651 11.164 23.6766 11.6945L10.0934 19.8037C10.024 19.8452 9.94086 19.8547 9.86312 19.8293L6.04363 18.5819L5.14971 19.1156L8.59403 22.0873C8.61753 22.107 8.63676 22.1301 8.65238 22.1562ZM6.63975 11.5293C6.61492 11.4877 6.60105 11.4386 6.6004 11.389C6.59871 11.289 6.65058 11.1952 6.73676 11.1438L9.74254 9.34932C9.81737 9.30465 9.90901 9.29725 9.99008 9.32983L14.422 11.1051L16.4216 9.9113L16.7099 10.3943L15.0791 11.3679L17.1587 12.2009L18.9592 11.126L19.2476 11.609L17.3281 12.7549C17.2533 12.7996 17.1616 12.807 17.0806 12.7744L9.91196 9.90329L7.44066 11.3787L14.0917 15.1056L13.8196 15.5956L6.74457 11.6305C6.7005 11.6067 6.66458 11.5709 6.63975 11.5293Z" fill="#FAF9F9"/>
</svg>
