<svg width="34" height="30" viewBox="0 0 34 30" fill="none" xmlns="http://www.w3.org/2000/svg">
<path d="M0.112258 21.5193C0.113179 21.4776 0.121754 21.4361 0.135802 21.3946L2.42324 14.9783L0.420037 8.4673C0.384425 8.34566 0.40595 8.2132 0.482576 8.11271C0.558132 8.01111 0.679799 7.95227 0.805577 7.95504L2.99301 8.00332C3.10676 8.00583 3.21287 8.05652 3.28643 8.14494L6.90344 12.4843L28.9604 12.9712C30.5124 13.0054 33.8995 13.7328 33.8567 15.6721C33.8139 17.6114 30.398 18.1886 28.846 18.1544L23.1959 18.0297L21.2168 20.4899L23.507 20.5404L23.4896 21.3322L20.5912 21.2682L18.6121 23.7284L21.2469 23.7865L21.2294 24.5783L17.9865 24.5067L13.7673 29.7521C13.6908 29.8482 13.5736 29.9027 13.4522 29.9L8.53048 29.7914C8.39048 29.7883 8.26307 29.7108 8.19467 29.5873C8.1252 29.4627 8.12957 29.3145 8.20009 29.193L14.924 17.8515L6.78794 17.6675L2.98299 21.8431C2.90672 21.9271 2.79736 21.9741 2.68361 21.9716L0.496175 21.9233C0.370397 21.9206 0.251449 21.8564 0.180422 21.7527C0.133826 21.6824 0.110464 21.6006 0.112258 21.5193ZM3.23259 14.9962C3.23165 15.039 3.22307 15.0806 3.20905 15.1209L1.05939 21.1447L2.52279 21.177L6.32774 17.0015C6.404 16.9174 6.51337 16.8704 6.62712 16.8729L15.6173 17.0768C15.7573 17.0799 15.8848 17.1575 15.9532 17.2809C16.0204 17.4055 16.0183 17.5537 15.9466 17.6752L9.22275 29.0156L13.2761 29.1051L22.7046 17.3827C22.7811 17.2866 22.8983 17.2321 23.0197 17.2347L28.8635 17.3637C30.3181 17.3958 33.0442 16.8385 33.0703 15.6547C33.0964 14.4721 30.3976 13.7939 28.943 13.7618L6.70662 13.271C6.59287 13.2685 6.48675 13.2178 6.4132 13.1294L2.79619 8.79002L1.3328 8.75772L3.21458 14.8705C3.2279 14.9115 3.23354 14.9533 3.23259 14.9962ZM8.77565 0.835767C8.77716 0.767682 8.79728 0.69891 8.83361 0.639285C8.9063 0.518936 9.03812 0.446037 9.17921 0.449152L14.0998 0.557759C14.2223 0.560463 14.337 0.620125 14.4092 0.719501L18.3612 6.14518L21.6347 6.21743L21.6172 7.00809L18.9475 6.94917L20.8018 9.49507L23.7494 9.56013L23.7319 10.3508L20.5897 10.2814C20.4672 10.2787 20.3525 10.2191 20.2803 10.1197L13.8877 1.34412L9.84205 1.25483L14.9787 10.663L14.2886 11.0433L8.82488 1.03461C8.79012 0.97342 8.77415 0.903851 8.77565 0.835767Z" fill="#FAF9F9"/>
</svg>
